<svg xmlns="http://www.w3.org/2000/svg" viewBox="0 0 32 32" id="image-folder"><path fill="#3E3C3C" d="M27 6H13.155a3.006 3.006 0 0 0-2.21-1H5a3.003 3.003 0 0 0-3 3v16a3.003 3.003 0 0 0 3 3h22a3.003 3.003 0 0 0 3-3V9a3.003 3.003 0 0 0-3-3Zm-5 15a2.002 2.002 0 0 1-2 2h-8a1.996 1.996 0 0 1-1.984-1.841c-.003-.015-.003-.03-.005-.046C10.01 21.075 10 21.04 10 21v-6a2.002 2.002 0 0 1 2-2h8a2.002 2.002 0 0 1 2 2ZM15.986 9a.994.994 0 0 1-.793-.39L14.725 8H27a1 1 0 0 1 1 1Zm1.817 10.217L19.586 21H12.25l1.859-2.478 1.184 1.185a1 1 0 0 0 1.154.188ZM20 15v3.587l-1.293-1.294a.998.998 0 0 0-1.154-.188l-1.356.678-1.49-1.49a.978.978 0 0 0-.777-.29.998.998 0 0 0-.73.397L12 18v-3Z" data-name="Gallery folder"></path></svg>