<svg xmlns="http://www.w3.org/2000/svg" xmlns:xlink="http://www.w3.org/1999/xlink" data-name="Layer 1" viewBox="0 0 512 512" id="schedule-time"><defs><linearGradient id="a" x1="256" x2="256" y1="24" y2="492.837" gradientUnits="userSpaceOnUse"><stop offset="0" stop-color="#00efd1"></stop><stop offset="1" stop-color="#00acea"></stop></linearGradient><linearGradient id="b" x1="206" x2="206" y1="24" y2="492.837" xlink:href="#a"></linearGradient><linearGradient id="c" x1="306" x2="306" y1="24" y2="492.837" xlink:href="#a"></linearGradient><linearGradient id="d" x1="405" x2="405" y1="24" y2="492.837" xlink:href="#a"></linearGradient><linearGradient id="e" x1="106" x2="106" y1="24" y2="492.837" xlink:href="#a"></linearGradient><linearGradient id="f" x1="106.194" x2="106.194" y1="24" y2="492.837" xlink:href="#a"></linearGradient><linearGradient id="g" x1="113.664" x2="113.664" y1="24" y2="492.837" xlink:href="#a"></linearGradient></defs><path fill="#3E3C3C" d="M432.735,78H392V47.313a8,8,0,1,0-16,0V78H141V47.313a8,8,0,1,0-16,0V78H79.265A51.254,51.254,0,0,0,28,129.174V421.436C28,449.7,51,473,79.265,473h353.47C461,473,484,449.7,484,421.436V129.174A51.254,51.254,0,0,0,432.735,78ZM44,129.174A35.236,35.236,0,0,1,79.265,94H125v30.533a8,8,0,1,0,16,0V94H376v30.533a8,8,0,1,0,16,0V94h40.735A35.236,35.236,0,0,1,468,129.174V169H44ZM432.735,457H79.265C59.826,457,44,440.873,44,421.436V185H468V421.436C468,440.873,452.174,457,432.735,457Z"></path><path fill="#3E3C3C" d="M247,233a8,8,0,0,0-8-8H173a8,8,0,0,0-8,8v66a8,8,0,0,0,8,8h66a8,8,0,0,0,8-8Zm-16,58H181V241h50Z"></path><path fill="url(#c)" d="M347,233a8,8,0,0,0-8-8H273a8,8,0,0,0-8,8v66a8,8,0,0,0,8,8h66a8,8,0,0,0,8-8Zm-16,58H281V241h50Z"></path><path fill="url(#d)" d="M446,233a8,8,0,0,0-8-8H372a8,8,0,0,0-8,8v66a8,8,0,0,0,8,8h66a8,8,0,0,0,8-8Zm-15,58H380V241h51Z"></path><path fill="url(#b)" d="M247,332a8,8,0,0,0-8-8H173a8,8,0,0,0-8,8v66a8,8,0,0,0,8,8h66a8,8,0,0,0,8-8Zm-16,58H181V340h50Z"></path><path fill="url(#e)" d="M147,332a8,8,0,0,0-8-8H73a8,8,0,0,0-8,8v66a8,8,0,0,0,8,8h66a8,8,0,0,0,8-8Zm-15,58H81V340h51Z"></path><path fill="url(#c)" d="M347,332a8,8,0,0,0-8-8H273a8,8,0,0,0-8,8v66a8,8,0,0,0,8,8h66a8,8,0,0,0,8-8Zm-16,58H281V340h50Z"></path><path fill="url(#d)" d="M446,332a8,8,0,0,0-8-8H372a8,8,0,0,0-8,8v66a8,8,0,0,0,8,8h66a8,8,0,0,0,8-8Zm-15,58H380V340h51Z"></path><path fill="url(#f)" d="M106.194,212.171A52.024,52.024,0,1,0,158.218,264.2,52.083,52.083,0,0,0,106.194,212.171Zm0,88.047A36.024,36.024,0,1,1,142.218,264.2,36.064,36.064,0,0,1,106.194,300.218Z"></path><path fill="url(#g)" d="M123.327,260H112V242.167a8,8,0,0,0-16,0v25.7A7.9,7.9,0,0,0,103.747,276h19.58a8,8,0,0,0,0-16Z"></path></svg>